<?xml version="1.0" standalone="no"?>
<!DOCTYPE svg PUBLIC "-//W3C//DTD SVG 1.1//EN" "http://www.w3.org/Graphics/SVG/1.1/DTD/svg11.dtd" >
<svg xmlns="http://www.w3.org/2000/svg" xmlns:xlink="http://www.w3.org/1999/xlink" version="1.1" viewBox="-10 0 2058 2048">
   <path fill="#000000"
d="M128 896q52 0 99 -20.5t81.5 -55t55 -81t20.5 -99.5q0 -71 -3 -142t4.5 -138.5t32 -130.5t78.5 -117t125 -83t147 -29v128q-53 0 -99.5 20.5t-81 55t-55 81.5t-20.5 99q0 56 2 110.5t0.5 107t-9.5 102t-27 94.5t-52 86t-85 76q52 35 85 76t52 86t27 94.5t9.5 102
t-0.5 107t-2 110.5q0 53 20.5 99.5t55 81t81 55t99.5 20.5v128q-76 0 -147 -29t-125 -83t-78.5 -117t-32 -130.5t-4.5 -138.5t3 -142q0 -52 -20.5 -99t-55 -81.5t-81.5 -55t-99 -20.5v-128zM1280 0q76 0 147 29t125 83t78.5 117t32 130.5t4.5 138.5t-3 142q0 53 20.5 99.5
t55 81t81 55t99.5 20.5v128q-53 0 -99.5 20.5t-81 55t-55 81.5t-20.5 99q0 71 3 142t-4.5 138.5t-32 130.5t-78.5 117t-125 83t-147 29v-128q52 0 99 -20.5t81.5 -55t55 -81t20.5 -99.5q0 -56 -2 -110.5t-0.5 -107t9.5 -102t27 -94.5t52 -86t85 -76q-52 -35 -85 -76t-52 -86
t-27 -94.5t-9.5 -102t0.5 -107t2 -110.5q0 -52 -20.5 -99t-55 -81.5t-81.5 -55t-99 -20.5v-128z" />
</svg>
