<?xml version="1.0" standalone="no"?>
<!DOCTYPE svg PUBLIC "-//W3C//DTD SVG 1.1//EN" "http://www.w3.org/Graphics/SVG/1.1/DTD/svg11.dtd" >
<svg xmlns="http://www.w3.org/2000/svg" xmlns:xlink="http://www.w3.org/1999/xlink" version="1.1" viewBox="-10 0 2058 2048">
   <path fill="#ffffff"
d="M1920 128v1792h-1792v-1792h1792zM1801 247h-1554v1554h1554v-1554zM1493 1461q0 -36 -25.5 -60.5t-64.5 -45.5t-83.5 -41.5t-83.5 -48.5t-64.5 -67.5t-25.5 -97.5q0 -55 25 -94t65 -63.5t88.5 -35.5t95.5 -11q19 0 41.5 1t45 3.5t44 7.5t39.5 14v122q-35 -26 -77 -35.5
t-85 -9.5q-23 0 -49.5 4t-49.5 15t-38 30t-15 48q0 26 10 44t30 33q26 20 56.5 33t59.5 27q34 16 68 38t61.5 49.5t44.5 62t17 76.5q0 60 -25 99.5t-65 63t-90 33t-100 9.5q-18 0 -45.5 -3t-56 -8.5t-54.5 -13t-40 -17.5v-127q17 15 40.5 27.5t49.5 21.5t52.5 13.5t49.5 4.5
q25 0 52.5 -3.5t50 -14.5t37 -31t14.5 -52zM767 1664q-41 0 -79.5 -12.5t-70.5 -36t-56.5 -56t-36.5 -71.5l103 -32q16 43 51.5 71.5t83.5 28.5q38 0 61.5 -18.5t36 -47t17 -61.5t4.5 -63v-458h123v477q0 56 -14 107t-43 89t-73.5 60.5t-106.5 22.5z" />
</svg>
