<?xml version="1.0" standalone="no"?>
<!DOCTYPE svg PUBLIC "-//W3C//DTD SVG 1.1//EN" "http://www.w3.org/Graphics/SVG/1.1/DTD/svg11.dtd" >
<svg xmlns="http://www.w3.org/2000/svg" xmlns:xlink="http://www.w3.org/1999/xlink" version="1.1" viewBox="-10 0 2065 2048">
   <path fill="#000000"
d="M2045 1219l-317 -317l-317 317l90 90l162 -163v583h129v-583l163 163zM1792 385h-1153v-129h1153v129zM1536 1665h-897v-129h897v129zM384 512h-384v-384h384v384zM128 384h128v-128h-128v128zM384 1152h-384v-384h384v384zM128 1024h128v-128h-128v128zM384 1792h-384
v-384h384v384zM128 1664h128v-128h-128v128zM1408 1024h-768v-128h896z" />
</svg>
