<?xml version="1.0" standalone="no"?>
<!DOCTYPE svg PUBLIC "-//W3C//DTD SVG 1.1//EN" "http://www.w3.org/Graphics/SVG/1.1/DTD/svg11.dtd" >
<svg xmlns="http://www.w3.org/2000/svg" xmlns:xlink="http://www.w3.org/1999/xlink" version="1.1" viewBox="-10 0 2058 2048">
   <path fill="#000000"
d="M1300 1201l-271 271l90 90l-226 227q-63 63 -145.5 97t-171.5 34q-73 0 -141.5 -22.5t-126.5 -66.5l-199 198l-90 -90l198 -199q-44 -58 -66.5 -126.5t-22.5 -141.5q0 -89 34 -171.5t97 -145.5l227 -226l90 90l271 -271l91 90l-272 272l272 272l272 -272zM576 1792
q64 0 122.5 -24.5t103.5 -69.5l136 -136l-452 -452l-136 136q-45 45 -69.5 103.5t-24.5 122.5q0 66 25 124.5t68.5 102t102 68.5t124.5 25zM1831 308q44 58 66.5 126.5t22.5 141.5q0 89 -34 171.5t-97 145.5l-227 226l-633 -633l226 -227q63 -63 145.5 -97t171.5 -34
q73 0 141.5 22.5t126.5 66.5l199 -198l90 90zM1698 802q45 -45 69.5 -103.5t24.5 -122.5q0 -66 -25.5 -124t-69 -101.5t-101.5 -69t-124 -25.5q-64 0 -122.5 24.5t-103.5 69.5l-136 136l452 452z" />
</svg>
